if (_typeface_js && _typeface_js.loadFace) _typeface_js.loadFace({"glyphs":{"0":{"ha":682,"x_min":85,"x_max":896,"o":"m 894 914 q 896 924 896 915 q 884 960 896 942 q 856 979 872 979 l 367 979 l 86 65 q 85 56 85 64 q 97 19 85 38 q 126 0 110 0 l 615 0 l 894 914 m 471 189 l 328 189 l 511 790 l 654 790 l 471 189 z "},"1":{"ha":460,"x_min":190,"x_max":694,"o":"m 260 979 l 368 790 l 432 790 l 190 0 l 394 0 l 694 979 l 260 979 z "},"2":{"ha":682,"x_min":67,"x_max":896,"o":"m 67 0 l 228 525 q 238 544 229 533 q 259 566 247 556 q 284 583 271 576 q 307 590 297 590 l 593 590 l 654 790 l 511 790 l 267 656 l 346 914 q 358 933 349 922 q 378 955 367 944 q 403 972 390 965 q 426 979 415 979 l 856 979 q 884 960 872 979 q 896 924 896 942 q 894 914 896 915 l 758 467 q 747 447 756 458 q 726 426 738 436 q 701 408 714 415 q 678 401 688 401 l 392 401 l 328 189 l 471 189 l 483 231 l 726 364 l 615 0 l 67 0 z "},"3":{"ha":697,"x_min":67,"x_max":913,"o":"m 669 790 l 511 790 l 483 699 l 281 699 l 367 979 l 871 979 q 900 960 888 979 q 913 924 913 942 q 911 914 913 915 l 803 557 l 694 496 l 765 436 l 651 65 q 640 46 649 57 q 618 24 631 35 q 593 7 606 14 q 571 0 581 0 l 67 0 l 153 281 l 356 281 l 328 189 l 486 189 l 550 401 l 479 401 l 350 590 l 608 590 l 669 790 z "},"4":{"ha":724,"x_min":119,"x_max":957,"o":"m 674 711 l 451 360 l 629 360 l 394 171 l 119 171 l 139 235 l 619 981 l 957 981 l 657 0 l 456 0 l 528 235 l 729 397 l 576 397 l 674 711 z "},"5":{"ha":682,"x_min":85,"x_max":915,"o":"m 615 0 l 126 0 q 97 19 110 0 q 85 56 85 38 q 86 65 85 64 l 165 322 l 328 189 l 471 189 l 535 401 l 189 401 l 367 979 l 915 979 l 815 656 l 654 790 l 511 790 l 450 590 l 736 590 q 766 571 754 590 q 778 533 778 551 l 776 525 l 615 0 z "},"6":{"ha":682,"x_min":85,"x_max":896,"o":"m 653 565 l 442 565 l 511 790 l 654 790 l 815 656 l 894 914 q 896 924 896 915 q 884 960 896 942 q 856 979 872 979 l 367 979 l 86 65 q 85 56 85 64 q 97 19 85 38 q 126 0 110 0 l 615 0 l 747 432 l 653 565 m 528 376 l 471 189 l 328 189 l 326 188 l 385 376 l 528 376 z "},"7":{"ha":650,"x_min":67,"x_max":915,"o":"m 67 0 l 290 0 l 915 979 l 367 979 l 269 663 l 511 790 l 567 790 l 67 0 z "},"8":{"ha":697,"x_min":85,"x_max":913,"o":"m 367 979 l 871 979 q 900 960 888 979 q 913 924 913 942 q 911 914 913 915 l 803 557 l 694 496 l 765 436 l 632 0 l 126 0 q 97 19 110 0 q 85 56 85 38 q 86 65 85 64 l 200 436 l 307 496 l 238 557 l 367 979 m 500 389 l 383 578 l 604 578 l 669 790 l 511 790 l 457 615 l 304 615 l 404 439 l 328 189 l 486 189 l 547 389 l 500 389 z "},"9":{"ha":682,"x_min":85,"x_max":896,"o":"m 328 414 l 539 414 l 471 189 l 328 189 l 165 322 l 86 65 q 85 56 85 64 q 97 19 85 38 q 126 0 110 0 l 615 0 l 894 914 q 896 924 896 915 q 884 960 896 942 q 856 979 872 979 l 367 979 l 233 546 l 328 414 m 454 603 l 511 790 l 653 790 l 654 792 l 597 603 l 454 603 z "}," ":{"ha":375,"x_min":0,"x_max":0,"o":""},"!":{"ha":335,"x_min":67,"x_max":569,"o":"m 367 979 l 151 278 l 354 278 l 569 979 l 367 979 m 328 190 l 125 190 l 67 0 l 269 0 l 328 190 z "},"\"":{"ha":599,"x_min":258,"x_max":832,"o":"m 522 629 l 631 979 l 832 979 l 781 811 l 522 629 m 258 629 l 367 979 l 569 979 l 518 811 l 258 629 z "},"#":{"ha":956,"x_min":158,"x_max":1113,"o":"m 258 731 l 432 731 l 467 843 l 397 979 l 711 979 l 635 731 l 799 731 l 833 843 l 764 979 l 1078 979 l 1001 731 l 1113 731 l 1056 543 l 944 543 l 901 406 l 1013 406 l 956 218 l 844 218 l 778 0 l 575 0 l 642 218 l 478 218 l 411 0 l 208 0 l 276 221 l 158 406 l 332 406 l 375 546 l 258 731 m 742 543 l 578 543 l 535 406 l 699 406 l 742 543 z "},"$":{"ha":682,"x_min":96,"x_max":886,"o":"m 768 1064 l 732 943 l 844 943 q 874 924 863 943 q 886 888 886 904 l 885 879 l 814 649 l 643 756 l 500 756 l 450 590 l 736 590 q 765 572 753 590 q 778 535 778 553 q 776 525 778 526 l 626 35 l 453 35 l 415 -86 l 213 -86 l 250 35 l 138 35 q 108 53 121 35 q 96 90 96 72 q 97 100 96 99 l 181 371 l 350 265 l 338 224 l 481 224 l 535 401 l 249 401 q 220 420 232 401 q 208 457 208 439 q 210 467 208 465 l 356 943 l 529 943 l 565 1064 l 768 1064 z "},"%":{"ha":1360,"x_min":206,"x_max":1454,"o":"m 954 979 l 488 0 l 707 0 l 1174 979 l 954 979 m 1453 519 q 1454 529 1454 521 q 1442 566 1454 547 q 1413 585 1429 585 l 1047 585 l 888 65 q 886 56 886 64 q 899 19 886 38 q 928 0 911 0 l 1294 0 l 1453 519 m 1165 167 l 1099 167 l 1175 418 l 1242 418 l 1165 167 m 772 914 q 774 924 774 915 q 761 960 774 942 q 732 979 749 979 l 367 979 l 207 458 q 206 449 206 457 q 218 412 206 431 q 247 393 231 393 l 614 393 l 772 914 m 483 560 l 417 560 l 494 813 l 561 813 l 483 560 z "},"&":{"ha":701,"x_min":85,"x_max":913,"o":"m 846 585 l 683 456 l 751 389 l 632 0 l 126 0 q 97 19 110 0 q 85 56 85 38 q 86 65 85 64 l 193 413 l 300 472 l 229 533 l 367 979 l 861 979 q 897 959 881 979 q 913 921 913 939 q 911 913 913 914 l 846 699 l 643 699 l 671 790 l 511 790 l 474 668 l 557 585 l 846 585 m 328 189 l 488 189 l 514 278 l 390 396 l 328 189 z "},"'":{"ha":335,"x_min":258,"x_max":569,"o":"m 258 629 l 367 979 l 569 979 l 518 811 l 258 629 z "},"(":{"ha":501,"x_min":51,"x_max":771,"o":"m 403 1099 l 53 -44 q 51 -54 51 -46 q 56 -77 51 -65 q 67 -100 60 -89 q 84 -118 75 -111 q 103 -125 93 -125 l 396 -125 l 468 111 l 354 111 l 583 863 l 699 863 l 771 1099 l 403 1099 z "},")":{"ha":501,"x_min":28,"x_max":747,"o":"m 396 -125 l 746 1018 q 747 1028 747 1019 q 743 1050 747 1038 q 731 1074 739 1063 q 715 1092 724 1085 q 696 1099 706 1099 l 403 1099 l 331 863 l 444 863 l 215 111 l 100 111 l 28 -125 l 396 -125 z "},"*":{"ha":375,"x_min":351,"x_max":601,"o":"m 461 824 l 561 900 l 546 946 l 601 958 l 599 1071 l 547 1043 l 568 1106 l 471 1106 l 456 1043 l 424 1071 l 361 961 l 406 947 l 351 897 l 408 824 l 451 879 l 461 824 z "},"+":{"ha":567,"x_min":188,"x_max":679,"o":"m 246 585 l 368 585 l 411 726 l 600 726 l 557 585 l 679 585 l 621 396 l 499 396 l 456 256 l 267 256 l 310 396 l 188 396 l 246 585 z "},",":{"ha":335,"x_min":18,"x_max":328,"o":"m 18 -160 l 125 190 l 328 190 l 276 22 l 18 -160 z "},"-":{"ha":482,"x_min":188,"x_max":594,"o":"m 246 585 l 188 396 l 536 396 l 594 585 l 246 585 z "},".":{"ha":335,"x_min":67,"x_max":328,"o":"m 328 190 l 125 190 l 67 0 l 269 0 l 328 190 z "},"/":{"ha":457,"x_min":35,"x_max":721,"o":"m 501 979 l 35 0 l 254 0 l 721 979 l 501 979 z "},":":{"ha":335,"x_min":67,"x_max":508,"o":"m 328 190 l 125 190 l 67 0 l 269 0 l 328 190 m 508 782 l 306 782 l 249 593 l 451 593 l 508 782 z "},";":{"ha":335,"x_min":18,"x_max":508,"o":"m 306 782 l 508 782 l 451 593 l 249 593 l 306 782 m 18 -160 l 125 190 l 328 190 l 276 22 l 18 -160 z "},"<":{"ha":926,"x_min":4,"x_max":1010,"o":"m 1010 1099 l 844 -125 l 569 -125 l 582 -7 l 403 288 l 633 288 l 701 751 l 703 786 l 493 333 l 307 333 l 413 153 l 279 -125 l 4 -125 l 508 933 l 426 1099 l 1010 1099 z "},"=":{"ha":507,"x_min":146,"x_max":660,"o":"m 286 719 l 229 531 l 603 531 l 660 719 l 286 719 m 203 446 l 146 257 l 519 257 l 576 446 l 203 446 z "},">":{"ha":743,"x_min":35,"x_max":840,"o":"m 840 979 l 707 0 l 488 0 l 497 93 l 354 331 l 539 331 l 593 701 l 594 729 l 426 368 l 285 368 l 281 363 l 361 222 l 256 0 l 35 0 l 438 846 l 371 979 l 840 979 z "},"?":{"ha":682,"x_min":106,"x_max":897,"o":"m 267 525 l 190 278 l 392 278 l 429 401 l 678 401 q 701 408 688 401 q 726 426 714 415 q 747 447 738 436 q 758 467 756 458 l 894 914 q 895 933 897 922 q 888 955 893 944 q 874 972 882 965 q 856 979 865 979 l 426 979 q 403 972 415 979 q 378 955 390 965 q 358 933 367 944 q 346 914 349 922 l 267 656 l 511 790 l 654 790 l 593 590 l 346 590 q 323 583 336 590 q 298 566 310 576 q 277 544 286 556 q 267 525 268 533 m 365 190 l 164 190 l 106 0 l 307 0 l 365 190 z "},"@":{"ha":1226,"x_min":51,"x_max":1472,"o":"m 776 278 l 932 368 l 1019 368 l 1169 863 l 583 863 l 354 111 l 1190 111 l 894 -125 l 103 -125 q 84 -118 93 -125 q 67 -100 75 -111 q 56 -77 60 -89 q 51 -54 51 -65 q 53 -44 51 -46 l 403 1099 l 1421 1099 q 1440 1092 1431 1099 q 1456 1074 1449 1085 q 1468 1050 1464 1063 q 1472 1028 1472 1038 q 1471 1018 1472 1019 l 1221 200 l 792 200 l 776 278 m 1046 719 l 954 418 l 739 293 l 747 200 l 521 200 q 491 219 503 200 q 479 257 479 239 l 481 265 l 640 785 l 1007 785 q 1035 766 1024 785 q 1047 729 1047 747 q 1046 719 1047 721 m 693 367 l 758 367 l 835 618 l 769 618 l 693 367 z "},"A":{"ha":926,"x_min":4,"x_max":1010,"o":"m 4 -125 l 279 -125 l 413 153 l 307 333 l 493 333 l 703 786 l 701 751 l 633 288 l 403 288 l 582 -7 l 569 -125 l 844 -125 l 1010 1099 l 589 1099 l 4 -125 z "},"B":{"ha":876,"x_min":49,"x_max":1107,"o":"m 681 -125 q 708 -116 692 -125 q 739 -94 724 -107 q 766 -68 754 -82 q 781 -44 778 -54 l 914 390 l 825 465 l 961 543 l 1106 1018 q 1107 1028 1107 1019 q 1103 1050 1107 1038 q 1091 1074 1099 1063 q 1074 1092 1083 1085 q 1056 1099 1065 1099 l 285 1099 l 371 928 l 49 -125 l 681 -125 m 758 711 l 518 558 l 544 308 l 653 369 l 574 111 l 375 111 l 475 438 l 460 586 l 539 643 l 606 863 l 804 863 l 758 711 z "},"C":{"ha":850,"x_min":67,"x_max":1081,"o":"m 418 1099 l 68 -44 q 67 -54 67 -46 q 71 -77 67 -65 q 83 -100 75 -89 q 99 -118 90 -111 q 118 -125 108 -125 l 729 -125 l 828 194 l 626 364 l 549 111 l 368 111 l 599 863 l 779 863 l 738 726 l 939 558 l 1079 1018 q 1081 1028 1081 1019 q 1076 1050 1081 1038 q 1065 1074 1072 1063 q 1048 1092 1057 1085 q 1029 1099 1039 1099 l 418 1099 z "},"D":{"ha":857,"x_min":49,"x_max":1086,"o":"m 285 1099 l 371 928 l 49 -125 l 660 -125 q 687 -116 671 -125 q 718 -94 703 -107 q 745 -68 733 -82 q 760 -44 757 -54 l 1085 1018 q 1086 1028 1086 1019 q 1082 1050 1086 1038 q 1070 1074 1078 1063 q 1053 1092 1063 1085 q 1035 1099 1044 1099 l 285 1099 m 785 863 l 554 111 l 375 111 l 606 863 l 785 863 z "},"E":{"ha":782,"x_min":49,"x_max":1035,"o":"m 1035 1099 l 285 1099 l 371 928 l 49 -125 l 660 -125 l 768 226 l 515 226 l 479 111 l 375 111 l 457 376 l 560 376 l 854 613 l 529 613 l 606 863 l 710 863 l 675 749 l 928 749 l 1035 1099 z "},"F":{"ha":782,"x_min":49,"x_max":1035,"o":"m 1035 1099 l 285 1099 l 371 928 l 49 -125 l 303 -125 l 457 376 l 560 376 l 854 613 l 529 613 l 606 863 l 710 863 l 675 749 l 928 749 l 1035 1099 z "},"G":{"ha":851,"x_min":67,"x_max":1082,"o":"m 778 581 l 431 581 l 581 344 l 621 344 l 549 111 l 368 111 l 465 425 l 336 628 l 526 628 l 599 863 l 779 863 l 761 804 l 964 636 l 1081 1018 q 1082 1028 1082 1019 q 1078 1050 1082 1038 q 1066 1074 1074 1063 q 1049 1092 1058 1085 q 1031 1099 1040 1099 l 418 1099 l 68 -44 q 67 -54 67 -46 q 71 -77 67 -65 q 83 -100 75 -89 q 99 -118 90 -111 q 118 -125 108 -125 l 731 -125 l 896 415 l 778 581 z "},"H":{"ha":882,"x_min":49,"x_max":1135,"o":"m 443 606 l 593 369 l 658 369 l 507 -125 l 760 -125 l 1135 1099 l 743 1099 l 829 928 l 731 606 l 443 606 m 49 -125 l 303 -125 l 479 450 l 349 653 l 542 653 l 678 1099 l 285 1099 l 371 928 l 49 -125 z "},"I":{"ha":422,"x_min":49,"x_max":678,"o":"m 285 1099 l 371 928 l 49 -125 l 303 -125 l 678 1099 l 285 1099 z "},"J":{"ha":850,"x_min":67,"x_max":1104,"o":"m 711 1099 l 799 926 l 549 111 l 368 111 l 435 328 l 233 494 l 68 -44 q 67 -54 67 -46 q 71 -77 67 -65 q 83 -100 75 -89 q 99 -118 90 -111 q 118 -125 108 -125 l 729 -125 l 1104 1099 l 711 1099 z "},"K":{"ha":878,"x_min":50,"x_max":1178,"o":"m 494 475 l 901 1099 l 1178 1099 l 792 506 l 799 -118 l 533 -260 l 494 475 m 678 1099 l 522 592 l 419 451 l 453 363 l 303 -125 l 50 -125 l 372 928 l 286 1099 l 678 1099 z "},"L":{"ha":782,"x_min":49,"x_max":768,"o":"m 285 1099 l 371 928 l 49 -125 l 660 -125 l 768 226 l 515 226 l 479 111 l 375 111 l 678 1099 l 285 1099 z "},"M":{"ha":1063,"x_min":49,"x_max":1317,"o":"m 303 -125 l 49 -125 l 371 928 l 285 1099 l 678 1099 l 700 589 l 1056 1099 l 1317 1099 l 942 -125 l 689 -125 l 847 390 l 711 186 q 707 182 711 185 q 701 176 703 179 q 690 165 693 168 q 676 151 688 161 l 476 -14 l 471 376 l 463 397 l 303 -125 z "},"N":{"ha":882,"x_min":49,"x_max":1135,"o":"m 303 -125 l 49 -125 l 371 928 l 285 1099 l 664 1099 l 729 601 l 882 1099 l 1135 1099 l 765 -111 l 607 -242 l 488 475 l 303 -125 z "},"O":{"ha":850,"x_min":67,"x_max":1081,"o":"m 68 -44 q 67 -54 67 -46 q 71 -77 67 -65 q 83 -100 75 -89 q 99 -118 90 -111 q 118 -125 108 -125 l 729 -125 l 1079 1018 q 1081 1028 1081 1019 q 1076 1050 1081 1038 q 1065 1074 1072 1063 q 1048 1092 1057 1085 q 1029 1099 1039 1099 l 418 1099 l 68 -44 m 599 863 l 779 863 l 549 111 l 368 111 l 599 863 z "},"P":{"ha":876,"x_min":49,"x_max":1107,"o":"m 471 406 l 497 156 l 914 389 l 1106 1018 q 1107 1028 1107 1019 q 1103 1050 1107 1038 q 1091 1074 1099 1063 q 1074 1092 1083 1085 q 1056 1099 1065 1099 l 285 1099 l 371 928 l 49 -125 l 303 -125 l 428 283 l 413 432 l 492 490 l 606 863 l 804 863 l 704 538 l 471 406 z "},"Q":{"ha":851,"x_min":53,"x_max":1082,"o":"m 304 -399 l 81 -212 q 53 -124 53 -172 q 61 -68 53 -97 l 418 1099 l 1031 1099 q 1049 1092 1040 1099 q 1066 1074 1058 1085 q 1078 1050 1074 1063 q 1082 1028 1082 1038 q 1081 1018 1082 1019 l 731 -125 l 536 -125 l 393 18 l 422 113 l 550 113 l 779 863 l 599 863 l 331 -15 l 478 -157 l 304 -399 z "},"R":{"ha":875,"x_min":49,"x_max":1107,"o":"m 471 406 l 532 -260 l 799 -118 l 768 306 l 914 389 l 1106 1018 q 1107 1028 1107 1019 q 1103 1050 1107 1038 q 1091 1074 1099 1063 q 1074 1092 1083 1085 q 1056 1099 1065 1099 l 285 1099 l 371 928 l 49 -125 l 303 -125 l 428 283 l 413 432 l 492 490 l 606 863 l 804 863 l 704 538 l 471 406 z "},"S":{"ha":853,"x_min":67,"x_max":1082,"o":"m 731 -125 l 897 419 l 564 742 l 601 863 l 779 863 l 749 763 l 951 594 l 1081 1018 q 1082 1028 1082 1019 q 1078 1050 1082 1038 q 1066 1074 1074 1063 q 1049 1092 1058 1085 q 1031 1099 1040 1099 l 418 1099 l 264 594 l 599 272 l 549 111 l 368 111 l 408 240 l 207 407 l 68 -44 q 67 -54 67 -46 q 71 -77 67 -65 q 83 -100 75 -89 q 99 -118 90 -111 q 118 -125 108 -125 l 731 -125 z "},"T":{"ha":921,"x_min":226,"x_max":1174,"o":"m 1067 749 l 1174 1099 l 286 1099 l 410 863 l 529 863 l 226 -125 l 481 -125 l 783 863 l 847 863 l 813 749 l 1067 749 z "},"U":{"ha":847,"x_min":65,"x_max":1103,"o":"m 278 1099 l 364 928 l 67 -44 q 65 -54 65 -46 q 69 -77 65 -65 q 81 -100 74 -89 q 98 -118 89 -111 q 117 -125 107 -125 l 728 -125 l 1103 1099 l 849 1099 l 546 111 l 367 111 l 669 1099 l 278 1099 z "},"V":{"ha":926,"x_min":214,"x_max":1219,"o":"m 1219 1099 l 635 -125 l 214 -125 l 379 1099 l 654 1099 l 522 221 l 519 188 l 865 933 l 785 1099 l 1219 1099 z "},"W":{"ha":1103,"x_min":71,"x_max":1404,"o":"m 494 -243 l 796 -112 l 1404 1099 l 969 1099 l 1056 928 l 839 493 l 864 713 l 735 881 l 496 481 l 485 469 l 640 1099 l 285 1099 l 339 928 l 71 -229 l 342 -124 l 599 268 l 494 -243 z "},"X":{"ha":897,"x_min":6,"x_max":1190,"o":"m 499 481 l 914 1099 l 1190 1099 l 804 506 l 811 -118 l 546 -260 l 499 481 m 383 1090 l 649 1232 l 669 818 l 442 506 l 468 161 l 281 -125 l 6 -125 l 390 468 l 383 1090 z "},"Y":{"ha":847,"x_min":151,"x_max":1103,"o":"m 278 1099 l 669 1099 l 454 393 l 633 393 l 849 1099 l 1103 1099 l 814 156 l 597 156 l 511 -125 l 258 -125 l 344 156 l 203 156 q 184 163 193 156 q 167 181 175 169 q 156 203 160 192 q 151 226 151 215 q 153 238 151 236 l 364 928 l 278 1099 z "},"Z":{"ha":850,"x_min":43,"x_max":1104,"o":"m 43 -125 l 729 -125 l 850 269 l 549 111 l 472 111 l 1104 1099 l 418 1099 l 297 703 l 599 863 l 672 863 l 43 -125 z "},"[":{"ha":435,"x_min":85,"x_max":669,"o":"m 367 979 l 86 65 q 85 56 85 64 q 97 19 85 38 q 126 0 110 0 l 369 0 l 428 189 l 328 189 l 326 188 l 511 790 l 611 790 l 669 979 l 367 979 z "},"\\":{"ha":457,"x_min":203,"x_max":556,"o":"m 556 979 l 421 0 l 203 0 l 335 979 l 556 979 z "},"]":{"ha":435,"x_min":67,"x_max":650,"o":"m 369 0 l 649 914 q 650 924 650 915 q 638 960 650 942 q 608 979 625 979 l 367 979 l 308 790 l 407 790 l 408 792 l 225 189 l 125 189 l 67 0 l 369 0 z "},"^":{"ha":335,"x_min":67,"x_max":569,"o":"m 569 979 l 367 979 l 67 0 l 269 0 l 569 979 z "},"_":{"ha":578,"x_min":53,"x_max":549,"o":"m 104 124 l 53 -47 l 497 -47 l 549 124 l 104 124 z "},"`":{"ha":736,"x_min":213,"x_max":969,"o":"m 883 699 l 969 979 l 367 979 l 308 790 l 454 790 l 213 0 l 417 0 l 658 790 l 710 790 l 682 699 l 883 699 z "},"a":{"ha":743,"x_min":35,"x_max":840,"o":"m 35 0 l 256 0 l 361 222 l 278 368 l 426 368 l 594 729 l 593 701 l 539 331 l 354 331 l 497 93 l 488 0 l 707 0 l 840 979 l 503 979 l 35 0 z "},"b":{"ha":703,"x_min":71,"x_max":917,"o":"m 576 0 q 599 7 586 0 q 623 24 611 14 q 644 46 635 35 q 656 65 653 57 l 763 413 l 692 472 l 799 533 l 915 914 q 917 924 917 915 q 905 960 917 942 q 876 979 893 979 l 260 979 l 329 843 l 71 0 l 576 0 m 636 668 l 446 547 l 467 347 l 553 396 l 490 189 l 332 189 l 411 450 l 399 568 l 461 615 l 515 790 l 674 790 l 636 668 z "},"c":{"ha":682,"x_min":85,"x_max":896,"o":"m 367 979 l 86 65 q 85 56 85 64 q 97 19 85 38 q 126 0 110 0 l 615 0 l 693 256 l 532 392 l 471 189 l 328 189 l 511 790 l 654 790 l 621 681 l 782 547 l 894 914 q 896 924 896 915 q 884 960 896 942 q 856 979 872 979 l 367 979 z "},"d":{"ha":686,"x_min":71,"x_max":900,"o":"m 260 979 l 329 843 l 71 0 l 560 0 q 582 7 569 0 q 606 24 594 14 q 627 46 618 35 q 639 65 636 57 l 899 914 q 900 924 900 915 q 888 960 900 942 q 860 979 876 979 l 260 979 m 660 790 l 476 189 l 332 189 l 515 790 l 660 790 z "},"e":{"ha":626,"x_min":71,"x_max":860,"o":"m 860 979 l 260 979 l 329 843 l 71 0 l 560 0 l 646 281 l 443 281 l 415 189 l 332 189 l 396 401 l 479 401 l 714 590 l 454 590 l 515 790 l 599 790 l 571 699 l 774 699 l 860 979 z "},"f":{"ha":626,"x_min":71,"x_max":860,"o":"m 860 979 l 260 979 l 329 843 l 71 0 l 274 0 l 396 401 l 479 401 l 714 590 l 454 590 l 515 790 l 599 790 l 571 699 l 774 699 l 860 979 z "},"g":{"ha":682,"x_min":85,"x_max":896,"o":"m 653 565 l 375 565 l 496 376 l 528 376 l 471 189 l 328 189 l 404 440 l 300 603 l 454 603 l 511 790 l 654 790 l 638 735 l 799 601 l 894 914 q 896 924 896 915 q 884 960 896 942 q 856 979 872 979 l 367 979 l 86 65 q 85 56 85 64 q 97 19 85 38 q 126 0 110 0 l 615 0 l 747 432 l 653 565 z "},"h":{"ha":707,"x_min":71,"x_max":940,"o":"m 386 585 l 506 396 l 558 396 l 438 0 l 640 0 l 940 979 l 626 979 l 696 843 l 617 585 l 386 585 m 71 0 l 274 0 l 414 460 l 310 622 l 464 622 l 574 979 l 260 979 l 329 843 l 71 0 z "},"i":{"ha":340,"x_min":71,"x_max":574,"o":"m 260 979 l 329 843 l 71 0 l 274 0 l 574 979 l 260 979 z "},"j":{"ha":682,"x_min":85,"x_max":915,"o":"m 601 979 l 669 842 l 471 189 l 328 189 l 381 363 l 218 496 l 86 65 q 85 56 85 64 q 97 19 85 38 q 126 0 110 0 l 615 0 l 915 979 l 601 979 z "},"k":{"ha":703,"x_min":71,"x_max":974,"o":"m 426 479 l 753 979 l 974 979 l 664 504 l 671 6 l 457 -107 l 424 472 l 426 479 m 574 979 l 449 572 l 367 463 l 394 393 l 274 0 l 71 0 l 329 843 l 260 979 l 574 979 z "},"l":{"ha":626,"x_min":71,"x_max":646,"o":"m 260 979 l 329 843 l 71 0 l 560 0 l 646 281 l 443 281 l 415 189 l 332 189 l 574 979 l 260 979 z "},"m":{"ha":851,"x_min":71,"x_max":1085,"o":"m 274 0 l 71 0 l 329 843 l 260 979 l 574 979 l 592 571 l 876 979 l 1085 979 l 785 0 l 582 0 l 707 410 l 600 247 q 598 244 600 246 q 594 239 596 242 q 585 229 588 232 q 574 219 583 226 l 411 86 l 406 399 l 400 415 l 274 0 z "},"n":{"ha":707,"x_min":71,"x_max":940,"o":"m 274 0 l 71 0 l 329 843 l 260 979 l 563 979 l 615 583 l 738 979 l 940 979 l 643 11 l 517 -93 l 419 479 l 274 0 z "},"o":{"ha":682,"x_min":85,"x_max":896,"o":"m 86 65 q 85 56 85 64 q 97 19 85 38 q 126 0 110 0 l 615 0 l 894 914 q 896 924 896 915 q 884 960 896 942 q 856 979 872 979 l 367 979 l 86 65 m 511 790 l 654 790 l 471 189 l 328 189 l 511 790 z "},"p":{"ha":703,"x_min":71,"x_max":917,"o":"m 410 425 l 431 225 l 761 411 l 915 914 q 917 924 917 915 q 905 960 917 942 q 876 979 893 979 l 260 979 l 329 843 l 71 0 l 274 0 l 374 328 l 361 446 l 425 493 l 515 790 l 674 790 l 594 531 l 410 425 z "},"q":{"ha":682,"x_min":72,"x_max":896,"o":"m 274 -219 l 97 -69 q 72 -1 72 -40 q 81 46 72 21 l 367 979 l 856 979 q 884 960 872 979 q 896 924 896 942 q 894 914 896 915 l 615 0 l 460 0 l 344 114 l 368 190 l 471 190 l 654 790 l 511 790 l 293 79 l 413 -26 l 274 -219 z "},"r":{"ha":701,"x_min":71,"x_max":917,"o":"m 410 425 l 457 -107 l 671 6 l 647 343 l 761 411 l 915 914 q 917 924 917 915 q 905 960 917 942 q 876 979 893 979 l 260 979 l 329 843 l 71 0 l 274 0 l 374 328 l 361 446 l 425 493 l 515 790 l 674 790 l 594 531 l 410 425 z "},"s":{"ha":683,"x_min":85,"x_max":896,"o":"m 617 0 l 750 435 l 482 694 l 511 790 l 654 790 l 629 710 l 792 576 l 894 914 q 896 924 896 915 q 884 960 896 942 q 856 979 872 979 l 367 979 l 243 575 l 510 318 l 471 189 l 328 189 l 360 293 l 197 426 l 86 65 q 85 56 85 64 q 97 19 85 38 q 126 0 110 0 l 617 0 z "},"t":{"ha":736,"x_min":213,"x_max":969,"o":"m 883 699 l 969 979 l 260 979 l 360 790 l 454 790 l 213 0 l 417 0 l 658 790 l 710 790 l 682 699 l 883 699 z "},"u":{"ha":681,"x_min":83,"x_max":914,"o":"m 254 979 l 324 843 l 85 65 q 83 56 83 64 q 96 19 83 38 q 125 0 108 0 l 614 0 l 914 979 l 711 979 l 469 189 l 326 189 l 568 979 l 254 979 z "},"v":{"ha":743,"x_min":203,"x_max":1007,"o":"m 1007 979 l 540 0 l 203 0 l 335 979 l 556 979 l 449 278 l 447 250 l 724 846 l 658 979 l 1007 979 z "},"w":{"ha":883,"x_min":88,"x_max":1156,"o":"m 428 -94 l 668 10 l 1156 979 l 807 979 l 878 843 l 703 493 l 729 643 l 731 650 q 728 660 728 664 q 722 669 728 664 l 618 806 l 428 483 l 419 476 l 544 979 l 260 979 l 303 843 l 88 -82 l 304 1 l 510 314 l 428 -94 z "},"x":{"ha":719,"x_min":35,"x_max":983,"o":"m 429 483 l 763 979 l 983 979 l 674 504 l 681 6 l 467 -107 l 429 483 m 338 972 l 551 1086 l 567 754 l 385 506 l 406 229 l 257 0 l 35 0 l 344 475 l 338 972 z "},"y":{"ha":681,"x_min":153,"x_max":914,"o":"m 254 979 l 568 979 l 394 414 l 538 414 l 711 979 l 914 979 l 683 225 l 511 225 l 442 0 l 239 0 l 308 225 l 194 225 q 165 244 178 225 q 153 281 153 263 q 154 290 153 289 l 324 843 l 254 979 z "},"z":{"ha":682,"x_min":67,"x_max":915,"o":"m 67 0 l 615 0 l 713 317 l 471 189 l 408 189 l 915 979 l 367 979 l 269 663 l 511 790 l 569 790 l 67 0 z "},"{":{"ha":850,"x_min":67,"x_max":1081,"o":"m 729 -125 l 118 -125 q 99 -118 108 -125 q 83 -100 90 -111 q 71 -77 75 -89 q 67 -54 67 -65 q 68 -44 67 -46 l 185 335 l 386 168 l 368 111 l 549 111 l 631 376 l 272 376 q 253 383 263 376 q 237 401 244 390 q 225 424 229 413 q 221 447 221 436 q 222 457 221 456 l 418 1099 l 1029 1099 q 1048 1092 1039 1099 q 1065 1074 1057 1085 q 1076 1050 1072 1063 q 1081 1028 1081 1038 q 1079 1018 1081 1019 l 981 694 l 779 863 l 599 863 l 522 613 l 881 613 q 899 606 890 613 q 916 588 908 599 q 928 564 924 576 q 932 542 932 551 q 931 531 932 532 l 729 -125 z "},"|":{"ha":386,"x_min":28,"x_max":656,"o":"m 403 1099 l 28 -125 l 281 -125 l 656 1099 l 403 1099 z "},"}":{"ha":682,"x_min":85,"x_max":896,"o":"m 615 0 l 126 0 q 97 19 110 0 q 85 56 85 38 q 86 65 85 64 l 178 364 l 340 231 l 328 189 l 471 189 l 535 401 l 249 401 q 220 420 232 401 q 208 457 208 439 q 210 467 208 465 l 367 979 l 856 979 q 884 960 872 979 q 896 924 896 942 q 894 914 896 915 l 815 656 l 654 790 l 511 790 l 450 590 l 736 590 q 766 571 754 590 q 778 533 778 551 l 776 525 l 615 0 z "},"~":{"ha":921,"x_min":226,"x_max":1174,"o":"m 1067 749 l 1174 1099 l 418 1099 l 346 863 l 529 863 l 226 -125 l 481 -125 l 783 863 l 847 863 l 813 749 l 1067 749 z "},"":{"ha":226,"x_min":0,"x_max":0,"o":""},"€":{"ha":778,"x_min":147,"x_max":1011,"o":"m 285 715 l 228 526 l 349 526 l 325 451 l 204 451 l 147 263 l 268 263 l 207 65 q 206 56 206 64 q 218 19 206 38 q 247 0 231 0 l 711 0 l 769 189 l 450 189 l 447 188 l 471 263 l 647 263 l 704 451 l 528 451 l 551 526 l 728 526 l 785 715 l 608 715 l 632 790 l 953 790 l 1011 979 l 488 979 l 406 715 l 285 715 z "},"‚":{"ha":335,"x_min":18,"x_max":328,"o":"m 18 -160 l 125 190 l 328 190 l 276 22 l 18 -160 z "},"ƒ":{"ha":926,"x_min":214,"x_max":1219,"o":"m 1219 1099 l 944 1099 l 519 188 l 522 221 l 654 1099 l 379 1099 l 214 -125 l 635 -125 l 1219 1099 z "},"„":{"ha":596,"x_min":18,"x_max":589,"o":"m 279 -160 l 386 190 l 589 190 l 538 22 l 279 -160 m 18 -160 l 125 190 l 328 190 l 276 22 l 18 -160 z "},"…":{"ha":931,"x_min":67,"x_max":922,"o":"m 922 190 l 719 190 l 661 0 l 864 0 l 922 190 m 625 190 l 422 190 l 364 0 l 567 0 l 625 190 m 328 190 l 125 190 l 67 0 l 269 0 l 328 190 z "},"†":{"ha":596,"x_min":208,"x_max":754,"o":"m 258 731 l 432 731 l 467 843 l 397 979 l 711 979 l 635 731 l 754 731 l 697 543 l 578 543 l 411 0 l 208 0 l 375 546 l 258 731 z "},"‡":{"ha":596,"x_min":158,"x_max":754,"o":"m 258 731 l 432 731 l 467 843 l 397 979 l 711 979 l 635 731 l 754 731 l 697 543 l 578 543 l 535 406 l 654 406 l 597 218 l 478 218 l 411 0 l 208 0 l 276 221 l 158 406 l 332 406 l 375 546 l 258 731 z "},"ˆ":{"ha":475,"x_min":357,"x_max":763,"o":"m 763 1056 l 736 1208 l 478 1208 l 357 1056 l 524 1056 l 585 1138 l 596 1056 l 763 1056 z "},"‰":{"ha":1833,"x_min":206,"x_max":1926,"o":"m 954 979 l 488 0 l 707 0 l 1174 979 l 954 979 m 1453 519 q 1454 529 1454 521 q 1442 566 1454 547 q 1413 585 1429 585 l 1047 585 l 888 65 q 886 56 886 64 q 899 19 886 38 q 928 0 911 0 l 1294 0 l 1453 519 m 1165 167 l 1099 167 l 1175 418 l 1242 418 l 1165 167 m 772 914 q 774 924 774 915 q 761 960 774 942 q 732 979 749 979 l 367 979 l 207 458 q 206 449 206 457 q 218 412 206 431 q 247 393 231 393 l 614 393 l 772 914 m 483 560 l 417 560 l 494 813 l 561 813 l 483 560 m 1925 519 q 1926 529 1926 521 q 1915 566 1926 547 q 1886 585 1903 585 l 1519 585 l 1360 65 q 1358 56 1358 64 q 1371 19 1358 38 q 1400 0 1383 0 l 1767 0 l 1925 519 m 1638 167 l 1571 167 l 1647 418 l 1714 418 l 1638 167 z "},"Š":{"ha":853,"x_min":67,"x_max":1082,"o":"m 631 1329 l 657 1176 l 915 1176 l 1036 1329 l 869 1329 l 808 1247 l 797 1329 l 631 1329 m 731 -125 l 900 428 l 565 746 l 601 863 l 779 863 l 749 763 l 951 594 l 1081 1018 q 1082 1028 1082 1019 q 1078 1050 1082 1038 q 1066 1074 1074 1063 q 1049 1092 1058 1085 q 1031 1099 1040 1099 l 418 1099 l 261 586 l 597 268 l 549 111 l 368 111 l 408 240 l 207 407 l 68 -44 q 67 -54 67 -46 q 71 -77 67 -65 q 83 -100 75 -89 q 99 -118 90 -111 q 118 -125 108 -125 l 731 -125 z "},"‹":{"ha":286,"x_min":176,"x_max":431,"o":"m 431 690 l 256 617 l 176 358 l 307 285 l 357 451 l 286 488 l 379 524 l 431 690 z "},"Œ":{"ha":1335,"x_min":67,"x_max":1589,"o":"m 418 1099 l 1589 1099 l 1482 749 l 1229 749 l 1264 863 l 1158 863 l 1082 613 l 1407 613 l 1113 376 l 1010 376 l 928 111 l 1031 111 l 1033 108 l 1069 226 l 1322 226 l 1214 -125 l 118 -125 q 99 -118 108 -125 q 83 -100 90 -111 q 71 -77 75 -89 q 67 -54 67 -65 q 68 -44 67 -46 l 418 1099 m 839 643 l 738 726 l 779 863 l 599 863 l 368 108 l 371 111 l 549 111 l 626 364 l 728 281 l 839 643 z "},"Ž":{"ha":850,"x_min":43,"x_max":1104,"o":"m 629 1329 l 656 1176 l 914 1176 l 1035 1329 l 868 1329 l 807 1247 l 796 1329 l 629 1329 m 43 -125 l 729 -125 l 850 269 l 549 111 l 465 111 l 1104 1099 l 418 1099 l 297 703 l 599 863 l 679 863 l 43 -125 z "},"‘":{"ha":335,"x_min":260,"x_max":569,"o":"m 569 981 l 463 631 l 260 631 l 310 797 l 569 981 z "},"’":{"ha":335,"x_min":258,"x_max":569,"o":"m 258 629 l 367 979 l 569 979 l 518 811 l 258 629 z "},"“":{"ha":599,"x_min":260,"x_max":832,"o":"m 569 981 l 463 631 l 260 631 l 310 797 l 569 981 m 832 981 l 725 631 l 524 631 l 574 797 l 832 981 z "},"”":{"ha":599,"x_min":258,"x_max":832,"o":"m 522 629 l 631 979 l 832 979 l 781 811 l 522 629 m 258 629 l 367 979 l 569 979 l 518 811 l 258 629 z "},"•":{"ha":682,"x_min":83,"x_max":897,"o":"m 86 65 q 85 46 83 57 q 94 24 88 35 q 108 7 100 14 q 126 0 117 0 l 615 0 l 894 914 q 895 933 897 922 q 888 955 893 944 q 874 972 882 965 q 856 979 865 979 l 367 979 l 86 65 z "},"–":{"ha":490,"x_min":214,"x_max":603,"o":"m 214 585 l 333 396 l 544 396 l 603 585 l 214 585 z "},"—":{"ha":642,"x_min":214,"x_max":754,"o":"m 214 585 l 333 396 l 696 396 l 754 585 l 214 585 z "},"˜":{"ha":539,"x_min":357,"x_max":907,"o":"m 596 1056 l 786 1056 l 907 1208 l 740 1208 l 679 1126 l 668 1208 l 478 1208 l 357 1056 l 524 1056 l 585 1138 l 596 1056 z "},"™":{"ha":369,"x_min":354,"x_max":640,"o":"m 410 1071 l 363 1071 l 372 1106 l 488 1106 l 478 1071 l 431 1071 l 375 892 l 354 892 l 410 1071 m 508 1100 q 517 1103 511 1103 q 521 1104 521 1103 l 519 1106 l 521 1107 q 522 1108 521 1108 q 534 1088 529 1108 q 538 1046 539 1067 l 536 1035 q 533 988 535 1007 q 528 954 531 969 q 544 988 538 972 q 563 1026 551 1003 q 602 1090 586 1075 q 633 1106 618 1106 l 640 1106 l 575 892 l 558 892 l 601 1032 l 601 1046 l 524 906 q 516 893 517 894 q 508 892 515 892 q 504 893 506 892 q 503 906 503 894 l 514 1043 l 503 1032 l 460 892 l 444 892 l 508 1100 z "},"š":{"ha":683,"x_min":85,"x_max":914,"o":"m 508 1208 l 535 1056 l 792 1056 l 914 1208 l 747 1208 l 686 1126 l 675 1208 l 508 1208 m 618 0 l 753 442 l 482 694 l 511 790 l 656 790 l 631 710 l 793 576 l 896 914 q 897 924 897 915 q 885 960 897 942 q 857 979 874 979 l 367 979 l 240 569 l 511 318 l 472 189 l 328 189 l 360 293 l 197 426 l 86 65 q 85 56 85 64 q 97 19 85 38 q 126 0 110 0 l 618 0 z "},"›":{"ha":286,"x_min":154,"x_max":408,"o":"m 278 690 l 408 617 l 329 358 l 154 285 l 204 451 l 297 488 l 226 524 l 278 690 z "},"œ":{"ha":1069,"x_min":85,"x_max":1303,"o":"m 367 979 l 1303 979 l 1217 699 l 1014 699 l 1042 790 l 958 790 l 897 590 l 1157 590 l 921 401 l 839 401 l 775 189 l 857 189 l 886 281 l 1089 281 l 1003 0 l 126 0 q 97 19 110 0 q 85 56 85 38 q 86 65 85 64 l 367 979 m 701 614 l 621 681 l 654 790 l 511 790 l 326 188 l 328 189 l 471 189 l 532 392 l 613 324 l 701 614 z "},"ž":{"ha":682,"x_min":67,"x_max":915,"o":"m 507 1208 l 533 1056 l 792 1056 l 913 1208 l 746 1208 l 685 1126 l 674 1208 l 507 1208 m 67 0 l 615 0 l 713 317 l 471 189 l 404 189 l 915 979 l 367 979 l 269 663 l 511 790 l 574 790 l 67 0 z "},"Ÿ":{"ha":847,"x_min":151,"x_max":1103,"o":"m 364 928 l 153 238 q 151 226 151 236 q 156 203 151 215 q 167 181 160 192 q 184 163 175 169 q 203 156 193 156 l 344 156 l 258 -125 l 511 -125 l 597 156 l 814 156 l 1103 1099 l 849 1099 l 633 393 l 454 393 l 669 1099 l 278 1099 l 364 928 m 796 1329 l 629 1329 l 582 1176 l 749 1176 l 796 1329 m 1035 1329 l 868 1329 l 821 1176 l 988 1176 l 1035 1329 z "}," ":{"ha":375,"x_min":0,"x_max":0,"o":""},"¡":{"ha":335,"x_min":67,"x_max":569,"o":"m 67 0 l 281 701 l 483 701 l 269 0 l 67 0 m 511 789 l 308 789 l 367 979 l 569 979 l 511 789 z "},"¢":{"ha":683,"x_min":122,"x_max":879,"o":"m 821 979 l 624 979 l 586 858 l 329 858 l 124 185 q 122 175 122 183 q 134 138 122 157 q 163 119 146 119 l 360 119 l 324 0 l 521 0 l 557 119 l 653 119 l 711 308 l 615 308 l 725 669 l 821 669 l 879 858 l 783 858 l 821 979 m 364 307 l 474 669 l 528 669 l 418 308 l 364 308 l 364 307 z "},"£":{"ha":790,"x_min":67,"x_max":821,"o":"m 247 590 l 189 401 l 304 401 l 240 189 l 125 189 l 67 0 l 724 0 l 810 281 l 607 281 l 579 189 l 443 189 l 507 401 l 554 401 l 801 590 l 565 590 l 626 790 l 763 790 l 821 979 l 542 979 q 518 972 531 979 q 494 955 506 965 q 473 933 482 944 q 461 914 464 922 l 363 590 l 247 590 z "},"¤":{"ha":697,"x_min":68,"x_max":931,"o":"m 436 481 l 601 572 l 726 979 l 931 979 l 790 522 l 663 449 l 663 0 l 453 0 l 436 481 m 544 979 l 554 590 l 390 496 l 397 413 l 271 0 l 68 0 l 208 457 l 335 531 l 335 979 l 544 979 z "},"¥":{"ha":681,"x_min":94,"x_max":914,"o":"m 151 101 l 94 -87 l 213 -87 l 189 -162 l 392 -162 l 415 -87 l 532 -87 l 589 101 l 472 101 l 489 156 l 606 156 l 664 343 l 547 343 l 565 403 l 738 403 l 914 979 l 711 979 l 592 592 l 449 592 l 568 979 l 254 979 l 324 843 l 208 468 q 207 458 207 467 q 219 422 207 440 q 249 403 232 403 l 363 403 l 344 343 l 226 343 l 168 156 l 286 156 l 269 101 l 151 101 z "},"¦":{"ha":335,"x_min":28,"x_max":606,"o":"m 403 1099 l 28 -125 l 231 -125 l 606 1099 l 403 1099 z "},"§":{"ha":697,"x_min":36,"x_max":960,"o":"m 815 1088 l 653 828 l 392 828 l 243 340 l 36 6 l 181 -107 l 406 243 l 640 243 l 767 660 l 960 974 l 815 1088 m 510 408 l 444 408 l 522 661 l 588 661 l 510 408 z "},"¨":{"ha":538,"x_min":389,"x_max":840,"o":"m 601 1208 l 436 1208 l 389 1056 l 554 1056 l 601 1208 m 840 1208 l 675 1208 l 628 1056 l 793 1056 l 840 1208 z "},"©":{"ha":339,"x_min":350,"x_max":592,"o":"m 506 1100 q 446 1086 472 1100 q 358 988 379 1050 q 356 931 350 951 q 368 909 363 917 q 385 890 374 901 q 438 875 428 875 q 453 877 438 875 q 496 890 468 879 l 503 893 q 528 910 517 903 q 550 931 539 918 q 583 988 576 964 q 585 1043 592 1008 q 554 1086 581 1065 q 506 1100 536 1100 m 500 1082 l 504 1082 q 558 1054 538 1082 q 568 993 578 1026 l 565 988 q 538 942 558 965 q 493 906 517 918 q 443 894 446 894 q 438 897 446 894 q 406 906 429 900 l 397 906 q 383 924 389 915 q 376 943 378 932 q 376 988 368 961 q 404 1035 383 1010 q 500 1082 447 1082 m 501 969 q 458 943 485 943 q 432 988 419 943 q 486 1035 446 1035 q 513 1013 508 1035 l 531 1017 q 490 1051 532 1051 q 411 988 432 1051 q 451 922 392 922 q 517 965 496 922 l 501 969 z "},"ª":{"ha":743,"x_min":35,"x_max":840,"o":"m 707 0 l 840 979 l 503 979 l 35 0 l 256 0 l 578 701 l 594 729 l 506 132 l 358 0 l 707 0 z "},"«":{"ha":508,"x_min":176,"x_max":653,"o":"m 431 690 l 256 617 l 176 358 l 307 285 l 357 451 l 286 488 l 379 524 l 431 690 m 653 690 l 476 617 l 397 358 l 529 285 l 579 451 l 507 488 l 601 524 l 653 690 z "},"¬":{"ha":642,"x_min":214,"x_max":754,"o":"m 214 585 l 754 585 l 653 256 l 464 256 l 507 396 l 333 396 l 214 585 z "},"­":{"ha":396,"x_min":214,"x_max":510,"o":"m 214 585 l 333 396 l 451 396 l 510 585 l 214 585 z "},"®":{"ha":339,"x_min":349,"x_max":593,"o":"m 506 1101 q 446 1086 485 1101 q 390 1043 415 1074 l 388 1042 q 371 1017 376 1028 q 360 989 365 1006 q 356 932 349 957 q 385 892 365 907 q 438 876 404 876 q 454 878 438 876 q 496 892 471 881 q 550 932 531 908 q 585 989 575 963 q 585 1043 593 1015 q 554 1086 583 1069 q 506 1101 535 1101 m 500 1083 l 504 1083 q 558 1055 538 1083 q 568 993 578 1026 l 567 989 q 561 981 564 989 q 551 960 558 972 q 530 934 543 949 q 494 907 517 919 q 443 896 450 896 q 434 898 443 896 q 406 906 425 900 l 399 907 q 376 943 376 925 q 376 976 375 964 q 378 989 378 989 q 404 1036 383 1011 q 500 1083 447 1083 m 404 926 l 424 926 l 439 978 l 450 978 q 463 972 460 978 q 476 946 467 967 l 479 926 l 504 926 l 497 950 q 490 970 490 964 q 478 981 489 976 q 524 1015 515 982 q 522 1033 526 1024 l 513 1043 q 482 1047 506 1047 l 442 1047 l 404 926 m 444 993 l 456 1031 l 476 1031 l 497 1031 q 503 1014 507 1025 q 492 998 500 1003 q 467 993 485 993 l 444 993 z "},"¯":{"ha":578,"x_min":351,"x_max":847,"o":"m 403 1100 l 351 929 l 796 929 l 847 1100 l 403 1100 z "},"°":{"ha":299,"x_min":389,"x_max":601,"o":"m 601 1208 l 436 1208 l 389 1056 l 554 1056 l 601 1208 z "},"±":{"ha":567,"x_min":67,"x_max":679,"o":"m 246 585 l 368 585 l 411 726 l 600 726 l 557 585 l 679 585 l 621 396 l 499 396 l 456 256 l 267 256 l 310 396 l 188 396 l 246 585 m 125 189 l 558 189 l 500 0 l 67 0 l 125 189 z "},"²":{"ha":558,"x_min":225,"x_max":821,"o":"m 225 519 l 329 857 q 338 868 331 861 q 353 881 344 875 q 370 892 361 888 q 386 896 379 896 l 586 896 l 600 939 l 444 939 l 346 913 l 393 1067 q 401 1078 394 1071 q 417 1091 408 1085 q 434 1101 425 1097 q 450 1106 443 1106 l 782 1106 q 809 1091 797 1106 q 818 1067 821 1076 l 726 768 q 703 744 724 758 q 668 731 683 731 l 446 731 l 432 686 l 597 686 l 713 722 l 650 519 l 225 519 z "},"³":{"ha":626,"x_min":71,"x_max":860,"o":"m 860 979 l 260 979 l 329 843 l 71 0 l 560 0 l 646 281 l 443 281 l 414 188 l 415 189 l 332 189 l 414 460 l 310 622 l 464 622 l 515 790 l 599 790 l 571 699 l 774 699 l 860 979 m 386 585 l 506 396 l 654 396 l 713 585 l 386 585 z "},"´":{"ha":261,"x_min":357,"x_max":629,"o":"m 464 1208 l 357 1056 l 508 1056 l 629 1208 l 464 1208 z "},"µ":{"ha":681,"x_min":11,"x_max":914,"o":"m 254 979 l 324 843 l 11 -175 l 214 -175 l 268 0 l 614 0 l 914 979 l 711 979 l 469 189 l 326 189 l 568 979 l 254 979 z "},"¶":{"ha":1400,"x_min":179,"x_max":1524,"o":"m 1515 492 q 1418 556 1524 514 q 1497 600 1486 561 l 1500 610 l 1336 656 q 1383 700 1371 656 l 1371 718 l 1164 718 l 1186 767 l 1125 772 l 938 740 l 936 749 l 947 772 l 925 800 l 742 726 l 676 772 q 619 740 649 761 q 540 678 589 719 l 454 707 l 449 707 q 372 593 406 707 l 272 603 l 251 556 l 283 494 l 182 481 l 179 442 l 265 399 l 197 358 q 214 326 186 326 l 349 301 l 314 274 l 306 244 l 526 226 l 504 186 l 526 171 l 757 203 l 742 156 l 765 146 l 958 226 l 999 179 l 1044 186 l 1156 274 l 1165 271 q 1202 250 1188 257 q 1239 243 1217 243 q 1275 261 1267 243 l 1317 358 l 1399 340 q 1436 375 1428 350 l 1438 381 l 1439 393 l 1407 456 l 1483 456 l 1513 490 l 1515 492 m 1483 481 l 1368 471 q 1413 374 1421 396 q 1411 373 1413 374 q 1406 365 1410 372 l 1296 382 l 1251 268 l 1149 301 l 1032 203 l 967 253 l 764 171 l 783 203 l 765 233 l 533 197 l 578 253 l 336 261 l 421 306 l 221 351 l 333 393 l 204 465 l 319 471 l 281 543 l 285 579 l 393 568 l 446 683 q 522 650 489 650 q 546 656 540 650 l 669 749 l 724 700 l 906 772 l 922 767 l 914 718 l 1153 749 l 1119 693 l 1356 693 l 1269 643 l 1460 603 l 1465 586 l 1454 586 l 1360 563 l 1481 494 l 1483 481 m 1331 539 l 1294 544 l 1256 435 l 1281 432 l 1331 539 m 1269 388 l 1249 397 l 1225 382 l 1239 365 l 1269 388 m 1206 396 l 1250 539 l 1224 544 l 1189 443 l 1131 539 l 1086 394 l 1114 397 l 1136 468 q 1206 396 1167 396 m 1060 397 l 1093 503 q 1063 549 1089 549 q 1040 543 1042 549 q 976 473 1003 508 q 931 401 950 438 l 965 401 q 1014 435 996 435 q 1042 401 1033 435 l 1060 397 m 961 544 l 929 539 l 868 394 l 908 404 l 961 544 m 838 390 l 881 532 l 860 539 l 822 442 l 758 532 l 714 388 l 744 393 l 764 460 q 838 390 801 390 m 729 492 q 682 539 731 539 l 663 539 q 565 410 594 504 q 613 388 571 388 q 625 388 619 388 q 639 390 631 389 q 729 492 683 390 m 596 543 q 456 460 476 526 l 453 450 q 452 445 451 447 q 453 442 453 443 q 493 376 449 376 q 505 378 500 376 q 525 383 510 381 l 532 407 q 516 405 524 406 q 501 404 508 404 q 476 432 468 404 q 518 492 486 464 q 565 513 547 513 q 575 511 575 513 q 576 510 575 511 q 582 507 578 510 l 596 543 m 464 539 l 436 535 l 375 388 l 411 399 l 464 539 m 1053 468 l 1004 468 l 1047 515 l 1053 468 m 690 469 q 683 447 686 456 q 668 428 679 439 q 637 418 649 421 q 622 415 625 415 q 610 450 600 415 l 613 460 q 671 506 643 506 q 694 488 686 506 q 692 479 693 482 q 692 476 692 476 q 690 469 692 471 z "},"·":{"ha":335,"x_min":188,"x_max":449,"o":"m 449 586 l 246 586 l 188 396 l 390 396 l 449 586 z "},"¸":{"ha":293,"x_min":-125,"x_max":226,"o":"m -125 -65 l -19 -211 l 163 -211 l 226 0 l 67 0 l 47 -65 l -125 -65 z "},"¹":{"ha":433,"x_min":346,"x_max":706,"o":"m 372 1106 l 442 939 l 475 939 l 346 519 l 526 519 l 706 1106 l 372 1106 z "},"º":{"ha":558,"x_min":243,"x_max":814,"o":"m 811 1040 q 811 1060 814 1049 q 802 1081 808 1071 q 788 1099 796 1092 q 769 1106 779 1106 l 404 1106 l 246 585 q 245 565 243 576 q 253 544 247 554 q 267 526 258 533 q 285 519 275 519 l 651 519 l 811 1040 m 522 686 l 456 686 l 533 939 l 600 939 l 522 686 z "},"»":{"ha":508,"x_min":154,"x_max":631,"o":"m 499 690 l 631 617 l 551 358 l 375 285 l 425 451 l 518 488 l 447 524 l 499 690 m 278 690 l 408 617 l 329 358 l 154 285 l 204 451 l 297 488 l 226 524 l 278 690 z "},"¼":{"ha":926,"x_min":214,"x_max":1219,"o":"m 1219 1099 l 944 1099 l 519 188 l 522 221 l 654 1099 l 379 1099 l 214 -125 l 635 -125 l 1219 1099 z "},"½":{"ha":1235,"x_min":308,"x_max":1336,"o":"m 1049 979 l 582 0 l 363 0 l 829 979 l 1049 979 m 744 0 l 847 338 q 855 349 849 342 q 870 362 861 356 q 888 372 879 368 q 906 376 897 376 l 1106 376 l 1118 418 l 961 418 l 865 393 l 911 546 q 919 557 913 550 q 934 570 925 564 q 952 581 943 576 q 969 585 961 585 l 1300 585 q 1326 573 1315 585 q 1336 550 1336 561 l 1336 546 l 1246 249 q 1238 238 1244 244 q 1222 224 1231 231 q 1203 214 1213 218 q 1185 210 1193 210 l 964 210 l 951 167 l 1117 167 l 1232 203 l 1169 0 l 744 0 m 335 979 l 403 813 l 436 813 l 308 393 l 489 393 l 668 979 l 335 979 z "},"¾":{"ha":743,"x_min":203,"x_max":1007,"o":"m 1007 979 l 788 979 l 447 250 l 449 278 l 556 979 l 335 979 l 203 0 l 540 0 l 1007 979 z "},"¿":{"ha":682,"x_min":85,"x_max":876,"o":"m 715 454 l 790 701 l 588 701 l 550 578 l 303 578 q 281 571 293 578 q 256 553 268 564 q 235 532 244 543 q 224 513 226 521 l 86 65 q 85 56 85 64 q 97 19 85 38 q 126 0 110 0 l 556 0 q 578 7 565 0 q 602 24 590 14 q 623 46 614 35 q 635 65 632 57 l 714 322 l 471 189 l 328 189 l 389 389 l 636 389 q 658 396 646 389 q 683 413 671 403 q 703 435 694 424 q 715 454 713 446 m 615 789 l 818 789 l 876 979 l 674 979 l 615 789 z "},"À":{"ha":926,"x_min":4,"x_max":1010,"o":"m 904 1176 l 893 1329 l 726 1329 l 753 1176 l 904 1176 m 4 -125 l 279 -125 l 413 153 l 307 333 l 493 333 l 703 786 l 701 751 l 633 288 l 403 288 l 582 -7 l 569 -125 l 844 -125 l 1010 1099 l 589 1099 l 4 -125 z "},"Á":{"ha":926,"x_min":4,"x_max":1013,"o":"m 892 1176 l 1013 1329 l 846 1329 l 740 1176 l 892 1176 m 4 -125 l 279 -125 l 413 153 l 307 333 l 493 333 l 703 786 l 701 751 l 633 288 l 403 288 l 582 -7 l 569 -125 l 844 -125 l 1010 1099 l 589 1099 l 4 -125 z "},"Â":{"ha":926,"x_min":4,"x_max":1025,"o":"m 1025 1176 l 999 1329 l 740 1329 l 619 1176 l 786 1176 l 847 1258 l 858 1176 l 1025 1176 m 4 -125 l 279 -125 l 413 153 l 307 333 l 493 333 l 703 786 l 701 751 l 633 288 l 403 288 l 582 -7 l 569 -125 l 844 -125 l 1010 1099 l 589 1099 l 4 -125 z "},"Ã":{"ha":926,"x_min":4,"x_max":1121,"o":"m 810 1176 l 1000 1176 l 1121 1329 l 954 1329 l 893 1247 l 882 1329 l 692 1329 l 571 1176 l 738 1176 l 799 1258 l 810 1176 m 4 -125 l 279 -125 l 413 153 l 307 333 l 493 333 l 703 786 l 701 751 l 633 288 l 403 288 l 582 -7 l 569 -125 l 844 -125 l 1010 1099 l 589 1099 l 4 -125 z "},"Ä":{"ha":926,"x_min":4,"x_max":1072,"o":"m 833 1329 l 667 1329 l 619 1176 l 786 1176 l 833 1329 m 1072 1329 l 906 1329 l 858 1176 l 1025 1176 l 1072 1329 m 4 -125 l 279 -125 l 413 153 l 307 333 l 493 333 l 703 786 l 701 751 l 633 288 l 403 288 l 582 -7 l 569 -125 l 844 -125 l 1010 1099 l 589 1099 l 4 -125 z "},"Å":{"ha":926,"x_min":4,"x_max":1010,"o":"m 953 1329 l 786 1329 l 739 1176 l 906 1176 l 953 1329 m 4 -125 l 279 -125 l 413 153 l 307 333 l 493 333 l 703 786 l 701 751 l 633 288 l 403 288 l 582 -7 l 569 -125 l 844 -125 l 1010 1099 l 589 1099 l 4 -125 z "},"Æ":{"ha":1496,"x_min":6,"x_max":1750,"o":"m 6 -125 l 589 1099 l 1750 1099 l 1643 749 l 1389 749 l 1424 863 l 1321 863 l 1244 613 l 1569 613 l 1274 376 l 1172 376 l 1090 111 l 1192 111 l 1193 108 l 1229 226 l 1483 226 l 1375 -125 l 569 -125 l 582 -7 l 403 288 l 633 288 l 701 751 l 704 786 l 493 333 l 308 333 l 413 153 l 281 -125 l 6 -125 m 1008 1081 l 910 350 l 1086 928 l 1008 1081 z "},"Ç":{"ha":850,"x_min":67,"x_max":1081,"o":"m 167 -185 l 272 -331 l 454 -331 l 517 -125 l 729 -125 l 828 194 l 626 364 l 549 111 l 368 111 l 599 863 l 779 863 l 738 726 l 939 558 l 1079 1018 q 1081 1028 1081 1019 q 1076 1050 1081 1038 q 1065 1074 1072 1063 q 1048 1092 1057 1085 q 1029 1099 1039 1099 l 418 1099 l 68 -44 q 67 -54 67 -46 q 71 -77 67 -65 q 83 -100 75 -89 q 99 -118 90 -111 q 118 -125 108 -125 l 357 -125 l 339 -185 l 167 -185 z "},"È":{"ha":782,"x_min":49,"x_max":1035,"o":"m 1035 1099 l 285 1099 l 371 928 l 49 -125 l 660 -125 l 768 226 l 515 226 l 479 111 l 375 111 l 457 376 l 560 376 l 854 613 l 529 613 l 606 863 l 710 863 l 675 749 l 928 749 l 1035 1099 m 832 1176 l 821 1329 l 654 1329 l 681 1176 l 832 1176 z "},"É":{"ha":782,"x_min":49,"x_max":1035,"o":"m 1035 1099 l 285 1099 l 371 928 l 49 -125 l 660 -125 l 768 226 l 515 226 l 479 111 l 375 111 l 457 376 l 560 376 l 854 613 l 529 613 l 606 863 l 710 863 l 675 749 l 928 749 l 1035 1099 m 819 1176 l 940 1329 l 774 1329 l 668 1176 l 819 1176 z "},"Ê":{"ha":782,"x_min":49,"x_max":1035,"o":"m 1035 1099 l 285 1099 l 371 928 l 49 -125 l 660 -125 l 768 226 l 515 226 l 479 111 l 375 111 l 457 376 l 560 376 l 854 613 l 529 613 l 606 863 l 710 863 l 675 749 l 928 749 l 1035 1099 m 953 1176 l 926 1329 l 668 1329 l 547 1176 l 714 1176 l 775 1258 l 786 1176 l 953 1176 z "},"Ë":{"ha":782,"x_min":49,"x_max":1035,"o":"m 1035 1099 l 285 1099 l 371 928 l 49 -125 l 660 -125 l 768 226 l 515 226 l 479 111 l 375 111 l 457 376 l 560 376 l 854 613 l 529 613 l 606 863 l 710 863 l 675 749 l 928 749 l 1035 1099 m 761 1329 l 594 1329 l 547 1176 l 714 1176 l 761 1329 m 1000 1329 l 833 1329 l 786 1176 l 953 1176 l 1000 1329 z "},"Ì":{"ha":422,"x_min":49,"x_max":683,"o":"m 683 1176 l 672 1329 l 506 1329 l 532 1176 l 683 1176 m 285 1099 l 371 928 l 49 -125 l 303 -125 l 678 1099 l 285 1099 z "},"Í":{"ha":422,"x_min":49,"x_max":731,"o":"m 610 1176 l 731 1329 l 564 1329 l 458 1176 l 610 1176 m 285 1099 l 371 928 l 49 -125 l 303 -125 l 678 1099 l 285 1099 z "},"Î":{"ha":422,"x_min":49,"x_max":774,"o":"m 774 1176 l 747 1329 l 489 1329 l 368 1176 l 535 1176 l 596 1258 l 607 1176 l 774 1176 m 285 1099 l 371 928 l 49 -125 l 303 -125 l 678 1099 l 285 1099 z "},"Ï":{"ha":422,"x_min":49,"x_max":821,"o":"m 582 1329 l 415 1329 l 368 1176 l 535 1176 l 582 1329 m 821 1329 l 654 1329 l 607 1176 l 774 1176 l 821 1329 m 285 1099 l 371 928 l 49 -125 l 303 -125 l 678 1099 l 285 1099 z "},"Ð":{"ha":761,"x_min":146,"x_max":976,"o":"m 214 583 l 324 583 l 404 843 l 335 979 l 935 979 q 953 972 944 979 q 967 955 961 965 q 974 933 972 944 q 974 914 976 922 l 714 65 q 702 46 711 57 q 681 24 693 35 q 657 7 669 14 q 635 0 644 0 l 146 0 l 289 467 l 214 583 m 735 790 l 590 790 l 526 583 l 603 583 l 546 394 l 469 394 l 407 189 l 551 189 l 735 790 z "},"Ñ":{"ha":882,"x_min":49,"x_max":1135,"o":"m 486 471 l 604 -242 l 765 -111 l 1135 1099 l 882 1099 l 731 606 l 665 1099 l 285 1099 l 371 928 l 49 -125 l 303 -125 l 486 471 m 775 1176 l 965 1176 l 1086 1329 l 919 1329 l 858 1247 l 847 1329 l 657 1329 l 536 1176 l 703 1176 l 764 1258 l 775 1176 z "},"Ò":{"ha":850,"x_min":67,"x_max":1081,"o":"m 867 1176 l 856 1329 l 689 1329 l 715 1176 l 867 1176 m 68 -44 q 67 -54 67 -46 q 71 -77 67 -65 q 83 -100 75 -89 q 99 -118 90 -111 q 118 -125 108 -125 l 729 -125 l 1079 1018 q 1081 1028 1081 1019 q 1076 1050 1081 1038 q 1065 1074 1072 1063 q 1048 1092 1057 1085 q 1029 1099 1039 1099 l 418 1099 l 68 -44 m 599 863 l 779 863 l 549 111 l 368 111 l 599 863 z "},"Ó":{"ha":850,"x_min":67,"x_max":1081,"o":"m 854 1176 l 975 1329 l 808 1329 l 703 1176 l 854 1176 m 68 -44 q 67 -54 67 -46 q 71 -77 67 -65 q 83 -100 75 -89 q 99 -118 90 -111 q 118 -125 108 -125 l 729 -125 l 1079 1018 q 1081 1028 1081 1019 q 1076 1050 1081 1038 q 1065 1074 1072 1063 q 1048 1092 1057 1085 q 1029 1099 1039 1099 l 418 1099 l 68 -44 m 599 863 l 779 863 l 549 111 l 368 111 l 599 863 z "},"Ô":{"ha":850,"x_min":67,"x_max":1081,"o":"m 68 -44 q 67 -54 67 -46 q 71 -77 67 -65 q 83 -100 75 -89 q 99 -118 90 -111 q 118 -125 108 -125 l 729 -125 l 1079 1018 q 1081 1028 1081 1019 q 1076 1050 1081 1038 q 1065 1074 1072 1063 q 1048 1092 1057 1085 q 1029 1099 1039 1099 l 418 1099 l 68 -44 m 599 863 l 779 863 l 549 111 l 368 111 l 599 863 m 988 1176 l 961 1329 l 703 1329 l 582 1176 l 749 1176 l 810 1258 l 821 1176 l 988 1176 z "},"Õ":{"ha":850,"x_min":67,"x_max":1083,"o":"m 772 1176 l 963 1176 l 1083 1329 l 917 1329 l 856 1247 l 844 1329 l 654 1329 l 533 1176 l 700 1176 l 761 1258 l 772 1176 m 68 -44 q 67 -54 67 -46 q 71 -77 67 -65 q 83 -100 75 -89 q 99 -118 90 -111 q 118 -125 108 -125 l 729 -125 l 1079 1018 q 1081 1028 1081 1019 q 1076 1050 1081 1038 q 1065 1074 1072 1063 q 1048 1092 1057 1085 q 1029 1099 1039 1099 l 418 1099 l 68 -44 m 599 863 l 779 863 l 549 111 l 368 111 l 599 863 z "},"Ö":{"ha":850,"x_min":67,"x_max":1081,"o":"m 796 1329 l 629 1329 l 582 1176 l 749 1176 l 796 1329 m 1035 1329 l 868 1329 l 821 1176 l 988 1176 l 1035 1329 m 68 -44 q 67 -54 67 -46 q 71 -77 67 -65 q 83 -100 75 -89 q 99 -118 90 -111 q 118 -125 108 -125 l 729 -125 l 1079 1018 q 1081 1028 1081 1019 q 1076 1050 1081 1038 q 1065 1074 1072 1063 q 1048 1092 1057 1085 q 1029 1099 1039 1099 l 418 1099 l 68 -44 m 599 863 l 779 863 l 549 111 l 368 111 l 599 863 z "},"×":{"ha":697,"x_min":68,"x_max":931,"o":"m 436 481 l 601 572 l 726 979 l 931 979 l 790 522 l 663 449 l 664 6 l 450 -107 l 436 481 m 544 979 l 554 590 l 390 496 l 397 413 l 271 0 l 68 0 l 208 457 l 335 531 l 335 979 l 544 979 z "},"Ø":{"ha":851,"x_min":67,"x_max":1082,"o":"m 1081 1018 q 1082 1028 1082 1019 q 1078 1050 1082 1038 q 1066 1074 1074 1063 q 1049 1092 1058 1085 q 1031 1099 1040 1099 l 418 1099 l 68 -44 q 67 -54 67 -46 q 71 -77 67 -65 q 83 -100 75 -89 q 99 -118 90 -111 q 118 -125 108 -125 l 731 -125 l 1081 1018 m 549 111 l 403 111 l 689 568 l 549 111 m 599 863 l 746 863 l 458 406 l 599 863 z "},"Ù":{"ha":847,"x_min":65,"x_max":1103,"o":"m 278 1099 l 364 928 l 67 -44 q 65 -54 65 -46 q 69 -77 65 -65 q 81 -100 74 -89 q 98 -118 89 -111 q 117 -125 107 -125 l 728 -125 l 1103 1099 l 849 1099 l 546 111 l 367 111 l 669 1099 l 278 1099 m 867 1176 l 856 1329 l 689 1329 l 715 1176 l 867 1176 z "},"Ú":{"ha":847,"x_min":65,"x_max":1103,"o":"m 278 1099 l 364 928 l 67 -44 q 65 -54 65 -46 q 69 -77 65 -65 q 81 -100 74 -89 q 98 -118 89 -111 q 117 -125 107 -125 l 728 -125 l 1103 1099 l 849 1099 l 546 111 l 367 111 l 669 1099 l 278 1099 m 854 1176 l 975 1329 l 808 1329 l 703 1176 l 854 1176 z "},"Û":{"ha":847,"x_min":65,"x_max":1103,"o":"m 278 1099 l 364 928 l 67 -44 q 65 -54 65 -46 q 69 -77 65 -65 q 81 -100 74 -89 q 98 -118 89 -111 q 117 -125 107 -125 l 728 -125 l 1103 1099 l 849 1099 l 546 111 l 367 111 l 669 1099 l 278 1099 m 988 1176 l 961 1329 l 703 1329 l 582 1176 l 749 1176 l 810 1258 l 821 1176 l 988 1176 z "},"Ü":{"ha":847,"x_min":65,"x_max":1103,"o":"m 278 1099 l 364 928 l 67 -44 q 65 -54 65 -46 q 69 -77 65 -65 q 81 -100 74 -89 q 98 -118 89 -111 q 117 -125 107 -125 l 728 -125 l 1103 1099 l 849 1099 l 546 111 l 367 111 l 669 1099 l 278 1099 m 796 1329 l 629 1329 l 582 1176 l 749 1176 l 796 1329 m 1035 1329 l 868 1329 l 821 1176 l 988 1176 l 1035 1329 z "},"Ý":{"ha":847,"x_min":151,"x_max":1103,"o":"m 364 928 l 153 238 q 151 226 151 236 q 156 203 151 215 q 167 181 160 192 q 184 163 175 169 q 203 156 193 156 l 344 156 l 258 -125 l 511 -125 l 597 156 l 814 156 l 1103 1099 l 849 1099 l 633 393 l 454 393 l 669 1099 l 278 1099 l 364 928 m 854 1176 l 975 1329 l 808 1329 l 703 1176 l 854 1176 z "},"Þ":{"ha":878,"x_min":50,"x_max":1060,"o":"m 286 1099 l 678 1099 l 631 946 l 1008 946 q 1045 922 1031 946 q 1060 876 1060 897 q 1058 865 1060 867 l 871 249 l 456 15 l 428 265 l 661 396 l 758 711 l 560 711 l 449 350 l 372 293 l 385 143 l 303 -125 l 50 -125 l 372 928 l 286 1099 z "},"ß":{"ha":715,"x_min":22,"x_max":929,"o":"m 686 790 l 511 790 l 225 -144 l 22 -144 l 367 979 l 889 979 q 917 960 906 979 q 929 924 929 942 q 928 914 929 915 l 819 557 l 711 496 l 782 436 l 668 65 q 656 46 665 57 q 635 24 647 35 q 611 7 624 14 q 589 0 599 0 l 310 0 l 368 189 l 504 189 l 568 401 l 490 590 l 625 590 l 686 790 z "},"à":{"ha":743,"x_min":35,"x_max":840,"o":"m 788 1056 l 776 1208 l 610 1208 l 636 1056 l 788 1056 m 35 0 l 256 0 l 361 222 l 278 368 l 426 368 l 594 729 l 593 701 l 539 331 l 354 331 l 497 93 l 488 0 l 707 0 l 840 979 l 503 979 l 35 0 z "},"á":{"ha":743,"x_min":35,"x_max":872,"o":"m 706 1208 l 600 1056 l 751 1056 l 872 1208 l 706 1208 m 35 0 l 256 0 l 361 222 l 278 368 l 426 368 l 594 729 l 593 701 l 539 331 l 354 331 l 497 93 l 488 0 l 707 0 l 840 979 l 503 979 l 35 0 z "},"â":{"ha":743,"x_min":35,"x_max":896,"o":"m 896 1056 l 869 1208 l 613 1208 l 492 1056 l 657 1056 l 718 1138 l 729 1056 l 896 1056 m 35 0 l 256 0 l 361 222 l 278 368 l 426 368 l 594 729 l 593 701 l 539 331 l 354 331 l 497 93 l 488 0 l 707 0 l 840 979 l 503 979 l 35 0 z "},"ã":{"ha":743,"x_min":35,"x_max":992,"o":"m 681 1056 l 871 1056 l 992 1208 l 826 1208 l 764 1126 l 753 1208 l 564 1208 l 442 1056 l 608 1056 l 669 1138 l 681 1056 m 35 0 l 256 0 l 361 222 l 278 368 l 426 368 l 594 729 l 593 701 l 539 331 l 354 331 l 497 93 l 488 0 l 707 0 l 840 979 l 503 979 l 35 0 z "},"ä":{"ha":743,"x_min":35,"x_max":943,"o":"m 704 1208 l 539 1208 l 492 1056 l 657 1056 l 704 1208 m 943 1208 l 776 1208 l 729 1056 l 896 1056 l 943 1208 m 35 0 l 256 0 l 361 222 l 278 368 l 426 368 l 594 729 l 593 701 l 539 331 l 354 331 l 497 93 l 488 0 l 707 0 l 840 979 l 503 979 l 35 0 z "},"å":{"ha":743,"x_min":35,"x_max":840,"o":"m 824 1208 l 657 1208 l 610 1056 l 776 1056 l 824 1208 m 35 0 l 256 0 l 361 222 l 278 368 l 426 368 l 594 729 l 593 701 l 539 331 l 354 331 l 497 93 l 488 0 l 707 0 l 840 979 l 503 979 l 35 0 z "},"æ":{"ha":1197,"x_min":35,"x_max":1432,"o":"m 35 0 l 503 979 l 1432 979 l 1346 699 l 1143 699 l 1171 790 l 1086 790 l 1025 590 l 1286 590 l 1050 401 l 967 401 l 903 189 l 986 189 l 986 188 l 1015 281 l 1218 281 l 1132 0 l 488 0 l 497 93 l 354 331 l 539 331 l 593 701 l 594 729 l 426 368 l 278 368 l 361 222 l 256 0 l 35 0 m 838 965 l 760 381 l 901 843 l 838 965 z "},"ç":{"ha":682,"x_min":85,"x_max":896,"o":"m 125 -65 l 231 -211 l 414 -211 l 478 0 l 615 0 l 693 256 l 532 392 l 471 189 l 328 189 l 511 790 l 654 790 l 621 681 l 782 547 l 894 914 q 896 924 896 915 q 884 960 896 942 q 856 979 872 979 l 367 979 l 86 65 q 85 56 85 64 q 97 19 85 38 q 126 0 110 0 l 318 0 l 299 -65 l 125 -65 z "},"è":{"ha":626,"x_min":71,"x_max":860,"o":"m 860 979 l 260 979 l 329 843 l 71 0 l 560 0 l 646 281 l 443 281 l 415 189 l 332 189 l 396 401 l 479 401 l 714 590 l 454 590 l 515 790 l 599 790 l 571 699 l 774 699 l 860 979 m 732 1056 l 721 1208 l 554 1208 l 581 1056 l 732 1056 z "},"é":{"ha":626,"x_min":71,"x_max":860,"o":"m 860 979 l 260 979 l 329 843 l 71 0 l 560 0 l 646 281 l 443 281 l 415 189 l 332 189 l 396 401 l 479 401 l 714 590 l 454 590 l 515 790 l 599 790 l 571 699 l 774 699 l 860 979 m 650 1208 l 543 1056 l 694 1056 l 815 1208 l 650 1208 z "},"ê":{"ha":626,"x_min":71,"x_max":860,"o":"m 860 979 l 260 979 l 329 843 l 71 0 l 560 0 l 646 281 l 443 281 l 415 189 l 332 189 l 396 401 l 479 401 l 714 590 l 454 590 l 515 790 l 599 790 l 571 699 l 774 699 l 860 979 m 840 1056 l 814 1208 l 556 1208 l 435 1056 l 601 1056 l 663 1138 l 674 1056 l 840 1056 z "},"ë":{"ha":626,"x_min":71,"x_max":888,"o":"m 649 1208 l 482 1208 l 435 1056 l 601 1056 l 649 1208 m 888 1208 l 721 1208 l 674 1056 l 840 1056 l 888 1208 m 860 979 l 260 979 l 329 843 l 71 0 l 560 0 l 646 281 l 443 281 l 415 189 l 332 189 l 396 401 l 479 401 l 714 590 l 454 590 l 515 790 l 599 790 l 571 699 l 774 699 l 860 979 z "},"ì":{"ha":340,"x_min":71,"x_max":604,"o":"m 604 1056 l 593 1208 l 426 1208 l 454 1056 l 604 1056 m 260 979 l 329 843 l 71 0 l 274 0 l 574 979 l 260 979 z "},"í":{"ha":340,"x_min":71,"x_max":651,"o":"m 486 1208 l 379 1056 l 531 1056 l 651 1208 l 486 1208 m 260 979 l 329 843 l 71 0 l 274 0 l 574 979 l 260 979 z "},"î":{"ha":340,"x_min":71,"x_max":694,"o":"m 694 1056 l 668 1208 l 411 1208 l 290 1056 l 456 1056 l 517 1138 l 529 1056 l 694 1056 m 260 979 l 329 843 l 71 0 l 274 0 l 574 979 l 260 979 z "},"ï":{"ha":340,"x_min":71,"x_max":742,"o":"m 503 1208 l 338 1208 l 290 1056 l 456 1056 l 503 1208 m 742 1208 l 576 1208 l 529 1056 l 694 1056 l 742 1208 m 260 979 l 329 843 l 71 0 l 274 0 l 574 979 l 260 979 z "},"ð":{"ha":682,"x_min":67,"x_max":915,"o":"m 589 1106 l 551 979 l 426 979 q 403 972 415 979 q 378 955 390 965 q 358 933 367 944 q 346 914 349 922 l 267 656 l 511 790 l 654 790 l 585 565 l 374 565 l 199 432 l 67 0 l 556 0 q 578 7 565 0 q 602 24 590 14 q 623 46 614 35 q 635 65 632 57 l 915 979 l 740 979 l 778 1106 l 589 1106 m 385 376 l 528 376 l 469 188 l 469 189 l 328 189 l 385 376 z "},"ñ":{"ha":707,"x_min":71,"x_max":972,"o":"m 71 0 l 274 0 l 419 478 l 515 -93 l 643 11 l 940 979 l 738 979 l 617 585 l 564 979 l 260 979 l 329 843 l 71 0 m 661 1056 l 851 1056 l 972 1208 l 806 1208 l 744 1126 l 733 1208 l 543 1208 l 422 1056 l 589 1056 l 650 1138 l 661 1056 z "},"ò":{"ha":682,"x_min":85,"x_max":896,"o":"m 757 1056 l 746 1208 l 579 1208 l 606 1056 l 757 1056 m 86 65 q 85 56 85 64 q 97 19 85 38 q 126 0 110 0 l 615 0 l 894 914 q 896 924 896 915 q 884 960 896 942 q 856 979 872 979 l 367 979 l 86 65 m 511 790 l 654 790 l 471 189 l 328 189 l 511 790 z "},"ó":{"ha":682,"x_min":85,"x_max":896,"o":"m 675 1208 l 568 1056 l 719 1056 l 840 1208 l 675 1208 m 86 65 q 85 56 85 64 q 97 19 85 38 q 126 0 110 0 l 615 0 l 894 914 q 896 924 896 915 q 884 960 896 942 q 856 979 872 979 l 367 979 l 86 65 m 511 790 l 654 790 l 471 189 l 328 189 l 511 790 z "},"ô":{"ha":682,"x_min":85,"x_max":896,"o":"m 865 1056 l 839 1208 l 581 1208 l 460 1056 l 626 1056 l 688 1138 l 699 1056 l 865 1056 m 86 65 q 85 56 85 64 q 97 19 85 38 q 126 0 110 0 l 615 0 l 894 914 q 896 924 896 915 q 884 960 896 942 q 856 979 872 979 l 367 979 l 86 65 m 511 790 l 654 790 l 471 189 l 328 189 l 511 790 z "},"õ":{"ha":682,"x_min":85,"x_max":961,"o":"m 650 1056 l 840 1056 l 961 1208 l 794 1208 l 733 1126 l 722 1208 l 532 1208 l 411 1056 l 578 1056 l 639 1138 l 650 1056 m 86 65 q 85 56 85 64 q 97 19 85 38 q 126 0 110 0 l 615 0 l 894 914 q 896 924 896 915 q 884 960 896 942 q 856 979 872 979 l 367 979 l 86 65 m 511 790 l 654 790 l 471 189 l 328 189 l 511 790 z "},"ö":{"ha":682,"x_min":85,"x_max":913,"o":"m 674 1208 l 507 1208 l 460 1056 l 626 1056 l 674 1208 m 913 1208 l 746 1208 l 699 1056 l 865 1056 l 913 1208 m 86 65 q 85 56 85 64 q 97 19 85 38 q 126 0 110 0 l 615 0 l 894 914 q 896 924 896 915 q 884 960 896 942 q 856 979 872 979 l 367 979 l 86 65 m 511 790 l 654 790 l 471 189 l 328 189 l 511 790 z "},"÷":{"ha":457,"x_min":35,"x_max":721,"o":"m 501 979 l 35 0 l 254 0 l 721 979 l 501 979 z "},"ø":{"ha":682,"x_min":85,"x_max":896,"o":"m 894 914 q 896 924 896 915 q 884 960 896 942 q 856 979 872 979 l 367 979 l 86 65 q 85 56 85 64 q 97 19 85 38 q 126 0 110 0 l 615 0 l 894 914 m 471 189 l 354 189 l 582 556 l 471 189 m 511 790 l 626 790 l 399 424 l 511 790 z "},"ù":{"ha":681,"x_min":82,"x_max":914,"o":"m 757 1056 l 746 1208 l 579 1208 l 606 1056 l 757 1056 m 254 979 l 324 843 l 85 65 q 84 46 82 57 q 92 24 86 35 q 107 7 99 14 q 125 0 115 0 l 614 0 l 914 979 l 711 979 l 469 189 l 326 189 l 568 979 l 254 979 z "},"ú":{"ha":681,"x_min":82,"x_max":914,"o":"m 675 1208 l 568 1056 l 719 1056 l 840 1208 l 675 1208 m 254 979 l 324 843 l 85 65 q 84 46 82 57 q 92 24 86 35 q 107 7 99 14 q 125 0 115 0 l 614 0 l 914 979 l 711 979 l 469 189 l 326 189 l 568 979 l 254 979 z "},"û":{"ha":681,"x_min":83,"x_max":914,"o":"m 865 1056 l 839 1208 l 581 1208 l 460 1056 l 626 1056 l 688 1138 l 699 1056 l 865 1056 m 254 979 l 324 843 l 85 65 q 83 56 83 64 q 96 19 83 38 q 125 0 108 0 l 614 0 l 914 979 l 711 979 l 469 189 l 326 189 l 568 979 l 254 979 z "},"ü":{"ha":681,"x_min":83,"x_max":914,"o":"m 674 1208 l 507 1208 l 460 1056 l 626 1056 l 674 1208 m 913 1208 l 746 1208 l 699 1056 l 865 1056 l 913 1208 m 254 979 l 324 843 l 85 65 q 83 56 83 64 q 96 19 83 38 q 125 0 108 0 l 614 0 l 914 979 l 711 979 l 469 189 l 326 189 l 568 979 l 254 979 z "},"ý":{"ha":681,"x_min":153,"x_max":914,"o":"m 568 1056 l 675 1208 l 840 1208 l 719 1056 l 568 1056 m 254 979 l 568 979 l 394 414 l 538 414 l 711 979 l 914 979 l 683 225 l 511 225 l 442 0 l 239 0 l 308 225 l 194 225 q 165 244 178 225 q 153 281 153 263 q 154 290 153 289 l 324 843 l 254 979 z "},"þ":{"ha":703,"x_min":71,"x_max":881,"o":"m 260 979 l 574 979 l 536 857 l 839 857 q 869 838 857 857 q 881 801 881 818 l 879 793 l 728 299 l 396 113 l 375 313 l 560 418 l 636 668 l 478 668 l 390 381 l 326 333 l 339 215 l 274 0 l 71 0 l 329 843 l 260 979 z "},"ÿ":{"ha":681,"x_min":153,"x_max":914,"o":"m 746 1208 l 913 1208 l 865 1056 l 699 1056 l 746 1208 m 507 1208 l 674 1208 l 626 1056 l 460 1056 l 507 1208 m 254 979 l 568 979 l 394 414 l 538 414 l 711 979 l 914 979 l 683 225 l 511 225 l 442 0 l 239 0 l 308 225 l 194 225 q 165 244 178 225 q 153 281 153 263 q 154 290 153 289 l 324 843 l 254 979 z "}}}
